<svg version="1.1" id="threads_logo" xmlns="http://www.w3.org/2000/svg" xmlns:xlink="http://www.w3.org/1999/xlink" x="0px"
	 y="0px" viewBox="0 0 960 960" style="enable-background:new 0 0 960 960;" xml:space="preserve">
<style type="text/css">
	.st0{fill:#FFFFFF;}
</style>
<g id="rounded_square">
	<path d="M804.6,960H155.4C69.58,960,0,890.42,0,804.6V155.4C0,69.58,69.58,0,155.4,0h649.2C890.42,0,960,69.58,960,155.4v649.2
		C960,890.42,890.42,960,804.6,960z"/>
</g>
<path id="curly_thingy" class="st0" d="M404.63,392.13c-11.92-7.93-51.53-35.49-51.53-35.49c33.4-47.88,77.46-66.52,138.36-66.52
	c43.07,0,79.64,14.52,105.75,42c26.12,27.49,41.02,66.8,44.41,117.07c14.48,6.07,27.85,13.22,39.99,21.4
	c48.96,33,75.92,82.34,75.92,138.91c0,120.23-98.34,224.67-276.35,224.67c-152.84,0-311.63-89.11-311.63-354.45
	c0-263.83,153.81-353.92,311.2-353.92c72.68,0,243.16,10.76,307.27,222.94l-60.12,15.63C678.33,213.2,574.4,189.14,479.11,189.14
	c-157.52,0-246.62,96.13-246.62,300.65c0,183.38,99.59,280.8,248.71,280.8c122.68,0,214.15-63.9,214.15-157.44
	c0-63.66-53.37-94.14-56.1-94.14c-10.42,54.62-38.36,146.5-161.01,146.5c-71.46,0-133.07-49.47-133.07-114.29
	c0-92.56,87.61-126.06,156.8-126.06c25.91,0,57.18,1.75,73.46,5.07c0-28.21-23.81-76.49-83.96-76.49
	C436.32,353.73,422.33,371.66,404.63,392.13z M510.43,488.38c-90.13,0-101.79,38.51-101.79,62.7c0,38.86,46.07,51.74,70.65,51.74
	c45.06,0,91.35-12.52,98.63-107.31C555.07,490.37,538.04,488.38,510.43,488.38z"/>
</svg>
